<?xml version="1.0" encoding="utf-8"?>

<svg xmlns="http://www.w3.org/2000/svg" xmlns:xlink="http://www.w3.org/1999/xlink" style="display: block">
    <symbol id="behance" viewBox="0 0 511.958 511.958"><title>behance</title><path d="M210.624,240.619c10.624-5.344,18.656-11.296,24.16-17.728c9.792-11.584,14.624-26.944,14.624-45.984 c0-18.528-4.832-34.368-14.496-47.648c-16.128-21.632-43.424-32.704-82.016-33.28H0v312.096h142.56 c16.064,0,30.944-1.376,44.704-4.192c13.76-2.848,25.664-8.064,35.744-15.68c8.96-6.624,16.448-14.848,22.4-24.544 c9.408-14.656,14.112-31.264,14.112-49.76c0-17.92-4.128-33.184-12.32-45.728C238.912,255.627,226.752,246.443,210.624,240.619z M63.072,150.187h68.864c15.136,0,27.616,1.632,37.408,4.864c11.328,4.704,16.992,14.272,16.992,28.864 c0,13.088-4.32,22.24-12.864,27.392c-8.608,5.152-19.776,7.744-33.472,7.744H63.072V150.187z M171.968,348.427 c-7.616,3.68-18.336,5.504-32.064,5.504H63.072v-83.232h77.888c13.568,0.096,24.128,1.888,31.68,5.248 c13.44,6.08,20.128,17.216,20.128,33.504C192.768,328.651,185.856,341.579,171.968,348.427z"/><rect x="327.168" y="110.539" width="135.584" height="38.848"/><path d="M509.856,263.851c-2.816-18.08-9.024-33.984-18.688-47.712c-10.592-15.552-24.032-26.944-40.384-34.144 c-16.288-7.232-34.624-10.848-55.04-10.816c-34.272,0-62.112,10.72-83.648,32c-21.472,21.344-32.224,52.032-32.224,92.032 c0,42.656,11.872,73.472,35.744,92.384c23.776,18.944,51.232,28.384,82.4,28.384c37.728,0,67.072-11.232,88.032-33.632 c13.408-14.144,20.992-28.064,22.656-41.728H446.24c-3.616,6.752-7.808,12.032-12.608,15.872 c-8.704,7.04-20.032,10.56-33.92,10.56c-13.216,0-24.416-2.912-33.76-8.704c-15.424-9.28-23.488-25.536-24.512-48.672h170.464 C512.16,289.739,511.52,274.411,509.856,263.851z M342.976,269.835c2.24-15.008,7.68-26.912,16.32-35.712 c8.64-8.768,20.864-13.184,36.512-13.216c14.432,0,26.496,4.128,36.32,12.416c9.696,8.352,15.168,20.48,16.288,36.512H342.976z"/></symbol>
    <symbol id="dribbble" viewBox="0 0 512 512"><title>dribbble</title><g> <g> <path d="M256,0C114.848,0,0,114.848,0,256s114.848,256,256,256s256-114.848,256-256S397.152,0,256,0z M256,480 C132.48,480,32,379.488,32,256C32,132.48,132.48,32,256,32c123.488,0,224,100.48,224,224C480,379.488,379.488,480,256,480z"/> </g> </g><g> <g> <path d="M256,64c-13.44,0-26.56,1.408-39.232,4.032c23.296,33.024,44.448,67.392,63.072,103.008 c35.232-16.416,68.384-37.6,98.656-62.88C345.248,80.576,302.56,64,256,64z"/> </g> </g><g> <g> <path d="M401.312,130.752c-32.928,27.744-69.152,50.752-107.616,68.736c8.416,17.536,16.224,35.296,23.456,53.344 c42.496-8.736,86.72-9.536,130.56-2.272C446.432,204.8,429.216,163.072,401.312,130.752z"/> </g> </g><g> <g> <path d="M184.64,77.856c-57.632,23.104-101.344,73.28-115.552,134.88c62.144,2.656,123.648-7.712,180.896-29.568 C230.752,146.656,208.96,111.456,184.64,77.856z"/> </g> </g><g> <g> <path d="M264.32,212.128c-55.424,21.6-114.624,33.376-174.816,33.376c-8.288,0-16.608-0.512-24.928-0.96 C64.352,248.352,64,252.128,64,256c0,47.136,17.056,90.272,45.248,123.68c46.112-57.248,108.096-98.272,176.704-118.88 C279.264,244.352,272.032,228.16,264.32,212.128z"/> </g> </g><g> <g> <path d="M328.896,283.136c15.264,42.56,27.232,86.304,36,130.912c43.264-29.856,73.472-76.992,81.056-131.456 C406.72,275.648,367.072,275.968,328.896,283.136z"/> </g> </g><g> <g> <path d="M297.472,290.56c-64.512,18.848-122.784,57.568-165.504,111.872C165.44,430.816,208.672,448,256,448 c28.416,0,55.328-6.336,79.584-17.44C326.784,382.752,313.984,335.968,297.472,290.56z"/> </g> </g></symbol>
    <symbol id="linkedin" viewBox="0 0 512 512"><title>linkedin</title><g> <g> <rect y="160" width="114.496" height="352"/> </g> </g><g> <g> <path d="M426.368,164.128c-1.216-0.384-2.368-0.8-3.648-1.152c-1.536-0.352-3.072-0.64-4.64-0.896 c-6.08-1.216-12.736-2.08-20.544-2.08c-66.752,0-109.088,48.544-123.04,67.296V160H160v352h114.496V320 c0,0,86.528-120.512,123.04-32c0,79.008,0,224,0,224H512V274.464C512,221.28,475.552,176.96,426.368,164.128z"/> </g> </g><g> <g> <circle cx="56" cy="56" r="56"/> </g> </g></symbol>
    <symbol id="facebook" viewBox="0 0 512 512"><title>facebook</title><path d="M288,176v-64c0-17.664,14.336-32,32-32h32V0h-64c-53.024,0-96,42.976-96,96v80h-64v80h64v256h96V256h64l32-80H288z"/></symbol><symbol id="instagram" viewBox="0 0 512 512"><title>instagram</title><g> <g> <path d="M352,0H160C71.648,0,0,71.648,0,160v192c0,88.352,71.648,160,160,160h192c88.352,0,160-71.648,160-160V160 C512,71.648,440.352,0,352,0z M464,352c0,61.76-50.24,112-112,112H160c-61.76,0-112-50.24-112-112V160C48,98.24,98.24,48,160,48 h192c61.76,0,112,50.24,112,112V352z"/> </g> </g><g> <g> <path d="M256,128c-70.688,0-128,57.312-128,128s57.312,128,128,128s128-57.312,128-128S326.688,128,256,128z M256,336 c-44.096,0-80-35.904-80-80c0-44.128,35.904-80,80-80s80,35.872,80,80C336,300.096,300.096,336,256,336z"/> </g> </g><g> <g> <circle cx="393.6" cy="118.4" r="17.056"/> </g> </g></symbol>
    <symbol id="twitter" viewBox="0 0 512 512"><title>twitter</title><path d="M512,97.248c-19.04,8.352-39.328,13.888-60.48,16.576c21.76-12.992,38.368-33.408,46.176-58.016 c-20.288,12.096-42.688,20.64-66.56,25.408C411.872,60.704,384.416,48,354.464,48c-58.112,0-104.896,47.168-104.896,104.992 c0,8.32,0.704,16.32,2.432,23.936c-87.264-4.256-164.48-46.08-216.352-109.792c-9.056,15.712-14.368,33.696-14.368,53.056 c0,36.352,18.72,68.576,46.624,87.232c-16.864-0.32-33.408-5.216-47.424-12.928c0,0.32,0,0.736,0,1.152 c0,51.008,36.384,93.376,84.096,103.136c-8.544,2.336-17.856,3.456-27.52,3.456c-6.72,0-13.504-0.384-19.872-1.792 c13.6,41.568,52.192,72.128,98.08,73.12c-35.712,27.936-81.056,44.768-130.144,44.768c-8.608,0-16.864-0.384-25.12-1.44 C46.496,446.88,101.6,464,161.024,464c193.152,0,298.752-160,298.752-298.688c0-4.64-0.16-9.12-0.384-13.568 C480.224,136.96,497.728,118.496,512,97.248z"/></symbol>
</svg>