<svg xmlns="http://www.w3.org/2000/svg" style="display: none;">
    <symbol id="telephone" viewBox="0 0 511.999 511.999"><title>telephone</title><path d="M498.827,377.633l-63.649-63.649c-17.548-17.547-46.102-17.547-63.649,0l-28.931,28.931 c-13.294,13.294-34.926,13.29-48.215,0.005l-125.4-125.507c-13.325-13.325-13.327-34.892,0-48.219 c4.66-4.66,18.041-18.041,28.931-28.931c17.471-17.47,17.715-45.935-0.017-63.665l-63.632-63.432 C116.717-4.381,88.164-4.381,70.663,13.12C57.567,26.102,53.343,30.29,47.471,36.111c-63.28,63.279-63.28,166.242-0.003,229.519 l198.692,198.796c63.428,63.429,166.088,63.434,229.521,0l23.146-23.145C516.375,423.733,516.375,395.181,498.827,377.633z M91.833,34.382c5.849-5.849,15.365-5.85,21.233,0.016l63.632,63.432c5.863,5.863,5.863,15.352,0,21.216l-10.609,10.608 l-84.81-84.81L91.833,34.382z M267.38,443.213L68.687,244.415c-48.958-48.958-51.649-125.833-8.276-178.006l84.564,84.564 c-22.22,25.189-21.294,63.572,2.787,87.653l125.396,125.501c0.001,0.001,0.003,0.003,0.004,0.004 c24.055,24.056,62.436,25.042,87.656,2.792l84.566,84.566C393.377,494.787,316.675,492.508,267.38,443.213z M477.612,420.065 l-10.609,10.609l-84.865-84.866l10.607-10.608c5.85-5.849,15.367-5.85,21.217,0l63.649,63.649 C483.461,404.699,483.461,414.217,477.612,420.065z"/></symbol>
    <symbol id="mail" viewBox="0 0 512 512"><title>mail</title><g> <g> <path d="M256,60c-57.897,0-105,47.103-105,105c0,35.943,18.126,69.015,48.487,88.467c31.003,19.863,69.06,21.974,104.426,5.703 c7.525-3.462,10.82-12.37,7.357-19.896c-3.462-7.525-12.369-10.82-19.896-7.358c-25.86,11.898-53.454,10.545-75.703-3.709 C193.961,214.298,181,190.669,181,165c0-41.355,33.645-75,75-75s75,33.645,75,75c0,8.271-6.729,15-15,15 c-7.558,0-14.618-5.732-14.998-14.772C301.001,165.152,301,165.076,301,165c0-24.813-20.187-45-45-45s-45,20.187-45,45 s20.187,45,45,45c11.516,0,22.031-4.353,29.999-11.494C293.966,205.648,304.483,210,316,210c24.813,0,45-20.187,45-45 C361,107.103,313.897,60,256,60z M270.789,167.406C269.631,174.535,263.45,180,256,180c-8.271,0-15-6.729-15-15s6.729-15,15-15 c7.691,0,14.04,5.82,14.895,13.285C270.671,164.648,270.634,166.035,270.789,167.406z"/> </g> </g><g> <g> <path d="M480.999,196.976c-0.004-3.879-1.566-7.756-4.393-10.583L421,130.787V15c0-8.284-6.716-15-15-15H106 c-8.284,0-15,6.716-15,15v115.787l-55.606,55.606c-0.052,0.052-0.096,0.11-0.147,0.163c-2.811,2.896-4.24,6.709-4.246,10.42 c0,0.01-0.001,0.019-0.001,0.029V467c0,24.845,20.216,45,45,45h360c24.839,0,45-20.207,45-45V197.005 C481,196.995,480.999,196.986,480.999,196.976z M421,173.213L444.787,197L421,220.787V173.213z M121,137.005 c0-0.003,0-0.007,0-0.01V30h270v106.995c0,0.003,0,0.007,0,0.01v113.782L309.787,332H202.213L121,250.787V137.005z M91,173.213 v47.574L67.213,197L91,173.213z M61,460.787V233.213L174.787,347L61,460.787z M82.214,482l119.999-120h107.574l119.999,120H82.214 z M451,460.787L337.213,347L451,233.213V460.787z"/> </g> </g></symbol>
</svg>